<svg width="762" height="499" viewBox="0 0 762 499" fill="none" xmlns="http://www.w3.org/2000/svg">
<g filter="url(#filter0_d_1104_14137)">
<g clip-path="url(#clip0_1104_14137)">
<rect width="722" height="459" rx="15.7009" transform="matrix(1 0 0 -1 20 475)" fill="url(#paint0_linear_1104_14137)"/>
<rect opacity="0.5" x="89" y="214" width="45.5326" height="36.6354" rx="4.1869" fill="white"/>
<path d="M98.2077 218.704C98.2077 218.704 104.346 216.17 104.346 222.322C104.346 228.475 97.5257 226.303 97.5257 226.303M97.5257 226.303H89M97.5257 226.303V235.35M97.5257 235.35H89M97.5257 235.35C97.5257 235.35 106.392 235.35 105.71 241.14C105.028 246.93 99.9128 245.844 99.9128 245.844" stroke="white" stroke-width="2.09345"/>
<path d="M125.023 243.279C125.023 243.279 118.704 245.907 118.598 239.802C118.492 233.696 125.599 235.724 125.599 235.724M125.599 235.724L134.435 235.566M125.599 235.724L125.443 226.747M125.443 226.747L134.279 226.588M125.443 226.747C125.443 226.747 116.252 226.912 116.859 221.153C117.466 215.395 122.787 216.377 122.787 216.377" stroke="white" stroke-width="2.09345"/>
<path d="M45.2054 420.925V401.894H49.2291V417.608H57.3881V420.925H45.2054ZM69.1317 414.848V406.652H73.0904V420.925H69.2897V418.333H69.141C68.8189 419.169 68.283 419.841 67.5334 420.349C66.79 420.857 65.8824 421.111 64.8106 421.111C63.8566 421.111 63.0171 420.895 62.2923 420.461C61.5675 420.027 61.0006 419.411 60.5917 418.612C60.1891 417.812 59.9846 416.855 59.9784 415.74V406.652H63.9371V415.034C63.9433 415.876 64.1694 416.542 64.6155 417.032C65.0615 417.521 65.6593 417.766 66.409 417.766C66.886 417.766 67.332 417.658 67.7471 417.441C68.1622 417.218 68.4967 416.889 68.7507 416.456C69.0109 416.022 69.1379 415.486 69.1317 414.848ZM76.2569 420.925V406.652H80.2155V420.925H76.2569ZM78.2455 404.812C77.657 404.812 77.1521 404.617 76.7308 404.227C76.3157 403.83 76.1082 403.356 76.1082 402.805C76.1082 402.26 76.3157 401.792 76.7308 401.402C77.1521 401.005 77.657 400.807 78.2455 400.807C78.834 400.807 79.3358 401.005 79.7509 401.402C80.1722 401.792 80.3828 402.26 80.3828 402.805C80.3828 403.356 80.1722 403.83 79.7509 404.227C79.3358 404.617 78.834 404.812 78.2455 404.812ZM83.3123 420.925V418.565L90.3004 409.914V409.811H83.5539V406.652H95.0675V409.226L88.5069 417.664V417.766H95.3091V420.925H83.3123ZM102.406 421.195C101.496 421.195 100.684 421.037 99.9717 420.721C99.2593 420.399 98.6956 419.925 98.2805 419.299C97.8716 418.667 97.6672 417.881 97.6672 416.939C97.6672 416.146 97.8127 415.48 98.1039 414.941C98.3951 414.402 98.7916 413.968 99.2934 413.64C99.7952 413.312 100.365 413.064 101.003 412.897C101.648 412.729 102.323 412.612 103.029 412.543C103.859 412.457 104.528 412.376 105.036 412.302C105.544 412.221 105.913 412.104 106.142 411.949C106.371 411.794 106.486 411.565 106.486 411.261V411.205C106.486 410.617 106.3 410.161 105.928 409.839C105.563 409.517 105.042 409.356 104.367 409.356C103.655 409.356 103.088 409.514 102.667 409.83C102.245 410.14 101.967 410.53 101.83 411.001L98.169 410.704C98.3548 409.836 98.7203 409.087 99.2655 408.455C99.8107 407.817 100.514 407.327 101.375 406.986C102.242 406.64 103.246 406.466 104.386 406.466C105.179 406.466 105.938 406.559 106.662 406.745C107.393 406.931 108.041 407.219 108.605 407.609C109.175 407.999 109.624 408.501 109.952 409.114C110.28 409.722 110.445 410.45 110.445 411.298V420.925H106.69V418.946H106.579C106.35 419.392 106.043 419.786 105.659 420.126C105.275 420.461 104.813 420.724 104.274 420.916C103.735 421.102 103.113 421.195 102.406 421.195ZM103.54 418.463C104.122 418.463 104.637 418.348 105.083 418.119C105.529 417.884 105.879 417.568 106.133 417.171C106.387 416.775 106.514 416.326 106.514 415.824V414.309C106.39 414.39 106.22 414.464 106.003 414.532C105.792 414.594 105.554 414.653 105.287 414.709C105.021 414.758 104.754 414.805 104.488 414.848C104.222 414.885 103.98 414.919 103.763 414.95C103.299 415.018 102.893 415.127 102.546 415.276C102.199 415.424 101.929 415.626 101.737 415.88C101.545 416.127 101.449 416.437 101.449 416.809C101.449 417.348 101.644 417.76 102.035 418.045C102.431 418.324 102.933 418.463 103.54 418.463Z" fill="#DDDDDD"/>
<path d="M157.394 240.209C155.667 240.209 154.176 239.817 152.92 239.032C151.664 238.229 150.695 237.156 150.015 235.813C149.352 234.47 149.021 232.978 149.021 231.338C149.021 229.698 149.352 228.207 150.015 226.864C150.695 225.52 151.664 224.456 152.92 223.671C154.176 222.869 155.667 222.467 157.394 222.467C158.703 222.467 159.88 222.703 160.927 223.174C161.974 223.627 162.864 224.255 163.596 225.058C164.329 225.86 164.878 226.794 165.245 227.858H163.178C162.741 226.794 162.052 225.948 161.11 225.32C160.168 224.692 158.982 224.378 157.551 224.378C156.156 224.378 154.961 224.692 153.966 225.32C152.989 225.93 152.248 226.759 151.742 227.806C151.236 228.852 150.983 230.03 150.983 231.338C150.983 232.629 151.236 233.807 151.742 234.871C152.248 235.918 152.989 236.755 153.966 237.383C154.961 237.994 156.156 238.299 157.551 238.299C158.982 238.299 160.168 237.985 161.11 237.357C162.052 236.729 162.741 235.883 163.178 234.819H165.245C164.878 235.865 164.329 236.799 163.596 237.619C162.864 238.421 161.974 239.058 160.927 239.529C159.88 239.983 158.703 240.209 157.394 240.209ZM173.447 240.209C172.121 240.209 170.969 239.913 169.992 239.32C169.016 238.709 168.265 237.889 167.742 236.86C167.219 235.831 166.957 234.697 166.957 233.458C166.957 232.202 167.219 231.068 167.742 230.056C168.265 229.027 169.016 228.216 169.992 227.622C170.969 227.012 172.121 226.707 173.447 226.707C174.79 226.707 175.941 227.012 176.901 227.622C177.878 228.216 178.628 229.027 179.151 230.056C179.675 231.068 179.936 232.202 179.936 233.458C179.936 234.697 179.675 235.831 179.151 236.86C178.628 237.889 177.878 238.709 176.901 239.32C175.941 239.913 174.79 240.209 173.447 240.209ZM173.447 238.43C174.424 238.43 175.244 238.203 175.906 237.75C176.587 237.296 177.102 236.694 177.45 235.944C177.799 235.176 177.974 234.348 177.974 233.458C177.974 232.551 177.799 231.722 177.45 230.972C177.102 230.222 176.587 229.62 175.906 229.166C175.244 228.713 174.424 228.486 173.447 228.486C172.487 228.486 171.667 228.713 170.987 229.166C170.307 229.62 169.792 230.222 169.443 230.972C169.094 231.722 168.92 232.551 168.92 233.458C168.92 234.348 169.094 235.176 169.443 235.944C169.792 236.694 170.307 237.296 170.987 237.75C171.667 238.203 172.487 238.43 173.447 238.43ZM182.539 240V226.916H184.502V230.135C184.571 229.908 184.702 229.611 184.894 229.245C185.103 228.861 185.4 228.477 185.784 228.093C186.168 227.71 186.647 227.387 187.223 227.125C187.816 226.846 188.514 226.707 189.316 226.707H189.447V228.669H189.212C188.235 228.669 187.389 228.94 186.673 229.48C185.976 230.004 185.435 230.693 185.051 231.548C184.685 232.385 184.502 233.284 184.502 234.243V240H182.539ZM191.56 245.181V226.916H193.522V229.009C194.011 228.294 194.639 227.736 195.406 227.335C196.192 226.916 197.125 226.707 198.206 226.707C199.48 226.707 200.588 227.012 201.53 227.622C202.489 228.216 203.231 229.027 203.754 230.056C204.277 231.068 204.539 232.202 204.539 233.458C204.539 234.697 204.277 235.831 203.754 236.86C203.231 237.889 202.489 238.709 201.53 239.32C200.588 239.913 199.48 240.209 198.206 240.209C197.125 240.209 196.192 240 195.406 239.581C194.639 239.145 194.011 238.578 193.522 237.88V245.181H191.56ZM197.945 238.43C198.922 238.43 199.75 238.203 200.431 237.75C201.129 237.296 201.661 236.694 202.027 235.944C202.393 235.176 202.577 234.348 202.577 233.458C202.577 232.551 202.393 231.722 202.027 230.972C201.661 230.222 201.129 229.62 200.431 229.166C199.75 228.713 198.922 228.486 197.945 228.486C196.985 228.486 196.165 228.713 195.485 229.166C194.805 229.62 194.29 230.222 193.941 230.972C193.592 231.722 193.418 232.551 193.418 233.458C193.418 234.348 193.592 235.176 193.941 235.944C194.29 236.694 194.805 237.296 195.485 237.75C196.165 238.203 196.985 238.43 197.945 238.43ZM212.801 240.209C211.475 240.209 210.324 239.913 209.347 239.32C208.37 238.709 207.62 237.889 207.096 236.86C206.573 235.831 206.311 234.697 206.311 233.458C206.311 232.202 206.573 231.068 207.096 230.056C207.62 229.027 208.37 228.216 209.347 227.622C210.324 227.012 211.475 226.707 212.801 226.707C214.144 226.707 215.296 227.012 216.255 227.622C217.232 228.216 217.982 229.027 218.506 230.056C219.029 231.068 219.291 232.202 219.291 233.458C219.291 234.697 219.029 235.831 218.506 236.86C217.982 237.889 217.232 238.709 216.255 239.32C215.296 239.913 214.144 240.209 212.801 240.209ZM212.801 238.43C213.778 238.43 214.598 238.203 215.261 237.75C215.941 237.296 216.456 236.694 216.805 235.944C217.154 235.176 217.328 234.348 217.328 233.458C217.328 232.551 217.154 231.722 216.805 230.972C216.456 230.222 215.941 229.62 215.261 229.166C214.598 228.713 213.778 228.486 212.801 228.486C211.842 228.486 211.022 228.713 210.341 229.166C209.661 229.62 209.146 230.222 208.797 230.972C208.448 231.722 208.274 232.551 208.274 233.458C208.274 234.348 208.448 235.176 208.797 235.944C209.146 236.694 209.661 237.296 210.341 237.75C211.022 238.203 211.842 238.43 212.801 238.43ZM221.893 240V226.916H223.856V230.135C223.926 229.908 224.057 229.611 224.248 229.245C224.458 228.861 224.754 228.477 225.138 228.093C225.522 227.71 226.002 227.387 226.577 227.125C227.171 226.846 227.868 226.707 228.671 226.707H228.802V228.669H228.566C227.589 228.669 226.743 228.94 226.028 229.48C225.33 230.004 224.789 230.693 224.405 231.548C224.039 232.385 223.856 233.284 223.856 234.243V240H221.893ZM236.103 240.209C234.83 240.209 233.713 239.913 232.754 239.32C231.812 238.709 231.079 237.889 230.556 236.86C230.032 235.831 229.771 234.697 229.771 233.458C229.771 232.202 230.032 231.068 230.556 230.056C231.079 229.027 231.812 228.216 232.754 227.622C233.713 227.012 234.83 226.707 236.103 226.707C237.185 226.707 238.11 226.916 238.877 227.335C239.662 227.753 240.299 228.32 240.788 229.036V226.916H242.75V240H240.788V237.907C240.299 238.604 239.662 239.163 238.877 239.581C238.11 240 237.185 240.209 236.103 240.209ZM236.365 238.43C237.342 238.43 238.162 238.203 238.825 237.75C239.505 237.296 240.02 236.694 240.369 235.944C240.718 235.176 240.892 234.348 240.892 233.458C240.892 232.551 240.718 231.722 240.369 230.972C240.02 230.222 239.505 229.62 238.825 229.166C238.162 228.713 237.342 228.486 236.365 228.486C235.406 228.486 234.577 228.713 233.879 229.166C233.181 229.62 232.649 230.222 232.283 230.972C231.917 231.722 231.733 232.551 231.733 233.458C231.733 234.348 231.917 235.176 232.283 235.944C232.649 236.694 233.181 237.296 233.879 237.75C234.577 238.203 235.406 238.43 236.365 238.43ZM247.558 240V228.643H244.889V226.916H247.558V222.232H249.521V226.916H252.53V228.643H249.521V240H247.558ZM254.602 224.718V222.153H256.721V224.718H254.602ZM254.68 240V226.916H256.643V240H254.68ZM263.606 240L258.477 226.916H260.622L264.757 237.907L268.865 226.916H271.011L265.908 240H263.606ZM278.273 240.209C276.947 240.209 275.795 239.913 274.818 239.32C273.841 238.709 273.091 237.889 272.568 236.86C272.045 235.831 271.783 234.697 271.783 233.458C271.783 232.202 272.045 231.068 272.568 230.056C273.091 229.027 273.841 228.216 274.818 227.622C275.795 227.012 276.947 226.707 278.273 226.707C279.616 226.707 280.767 227.012 281.727 227.622C282.704 228.216 283.454 229.027 283.977 230.056C284.501 231.068 284.762 232.202 284.762 233.458C284.762 234.697 284.501 235.831 283.977 236.86C283.454 237.889 282.704 238.709 281.727 239.32C280.767 239.913 279.616 240.209 278.273 240.209ZM278.273 238.43C279.25 238.43 280.069 238.203 280.732 237.75C281.413 237.296 281.927 236.694 282.276 235.944C282.625 235.176 282.8 234.348 282.8 233.458C282.8 232.551 282.625 231.722 282.276 230.972C281.927 230.222 281.413 229.62 280.732 229.166C280.069 228.713 279.25 228.486 278.273 228.486C277.313 228.486 276.493 228.713 275.813 229.166C275.132 229.62 274.618 230.222 274.269 230.972C273.92 231.722 273.746 232.551 273.746 233.458C273.746 234.348 273.92 235.176 274.269 235.944C274.618 236.694 275.132 237.296 275.813 237.75C276.493 238.203 277.313 238.43 278.273 238.43Z" fill="#EEEEEE"/>
<path d="M49.0942 434.857V447.038H47.6193V436.404H47.5479L44.5743 438.378V436.88L47.6193 434.857H49.0942ZM52.5972 447.038V445.967L56.6175 441.566C57.0894 441.051 57.4779 440.603 57.7832 440.222C58.0885 439.837 58.3145 439.476 58.4612 439.139C58.6119 438.799 58.6872 438.442 58.6872 438.069C58.6872 437.641 58.5841 437.27 58.378 436.957C58.1757 436.644 57.8982 436.402 57.5453 436.231C57.1925 436.061 56.796 435.976 56.3559 435.976C55.888 435.976 55.4796 436.073 55.1307 436.267C54.7858 436.457 54.5181 436.725 54.3278 437.07C54.1415 437.415 54.0483 437.819 54.0483 438.283H52.6447C52.6447 437.569 52.8093 436.943 53.1384 436.404C53.4675 435.864 53.9155 435.444 54.4825 435.143C55.0534 434.842 55.6937 434.691 56.4034 434.691C57.1171 434.691 57.7495 434.842 58.3006 435.143C58.8518 435.444 59.2839 435.851 59.5971 436.362C59.9104 436.874 60.067 437.443 60.067 438.069C60.067 438.517 59.9857 438.955 59.8231 439.383C59.6646 439.808 59.387 440.281 58.9905 440.805C58.598 441.324 58.0528 441.959 57.355 442.708L54.6193 445.634V445.729H60.2811V447.038H52.5972ZM66.8529 447.204C66.0678 447.204 65.368 447.069 64.7535 446.8C64.1429 446.53 63.6572 446.155 63.2964 445.676C62.9395 445.192 62.7453 444.631 62.7135 443.992H64.2123C64.244 444.385 64.3788 444.724 64.6167 445.009C64.8546 445.291 65.1658 445.509 65.5504 445.664C65.935 445.818 66.3612 445.896 66.8291 445.896C67.3524 445.896 67.8163 445.804 68.2207 445.622C68.6252 445.44 68.9424 445.186 69.1723 444.861C69.4023 444.536 69.5173 444.159 69.5173 443.731C69.5173 443.283 69.4062 442.888 69.1842 442.547C68.9622 442.202 68.6371 441.933 68.2088 441.738C67.7806 441.544 67.2573 441.447 66.6388 441.447H65.6634V440.139H66.6388C67.1225 440.139 67.5467 440.051 67.9115 439.877C68.2802 439.702 68.5677 439.457 68.7738 439.139C68.984 438.822 69.0891 438.45 69.0891 438.021C69.0891 437.609 68.9979 437.25 68.8155 436.945C68.6331 436.64 68.3754 436.402 68.0423 436.231C67.7132 436.061 67.3247 435.976 66.8767 435.976C66.4564 435.976 66.0599 436.053 65.6872 436.207C65.3185 436.358 65.0171 436.578 64.7832 436.868C64.5493 437.153 64.4224 437.498 64.4026 437.902H62.9752C62.999 437.264 63.1913 436.705 63.5521 436.225C63.9129 435.742 64.3847 435.365 64.9676 435.095C65.5544 434.826 66.1987 434.691 66.9004 434.691C67.6538 434.691 68.3 434.844 68.8393 435.149C69.3785 435.45 69.7928 435.849 70.0823 436.344C70.3717 436.84 70.5164 437.375 70.5164 437.95C70.5164 438.636 70.336 439.221 69.9752 439.704C69.6184 440.188 69.1327 440.523 68.5181 440.71V440.805C69.2873 440.932 69.888 441.259 70.3201 441.786C70.7523 442.309 70.9684 442.958 70.9684 443.731C70.9684 444.393 70.788 444.988 70.4272 445.515C70.0704 446.038 69.5827 446.451 68.9642 446.752C68.3456 447.053 67.6419 447.204 66.8529 447.204ZM73.1154 444.54V443.326L78.468 434.857H79.3482V436.737H78.7534L74.7093 443.136V443.231H81.9174V444.54H73.1154ZM78.8486 447.038V444.171V443.606V434.857H80.2521V447.038H78.8486ZM91.2115 441.709L91.3067 439.092L89.0943 440.495L88.5234 439.496L90.8547 438.283L88.5234 437.07L89.0943 436.071L91.3067 437.474L91.2115 434.857H92.3534L92.2583 437.474L94.4707 436.071L95.0416 437.07L92.7103 438.283L95.0416 439.496L94.4707 440.495L92.2583 439.092L92.3534 441.709H91.2115ZM99.5854 441.709L99.6805 439.092L97.4681 440.495L96.8972 439.496L99.2285 438.283L96.8972 437.07L97.4681 436.071L99.6805 437.474L99.5854 434.857H100.727L100.632 437.474L102.844 436.071L103.415 437.07L101.084 438.283L103.415 439.496L102.844 440.495L100.632 439.092L100.727 441.709H99.5854ZM107.959 441.709L108.054 439.092L105.842 440.495L105.271 439.496L107.602 438.283L105.271 437.07L105.842 436.071L108.054 437.474L107.959 434.857H109.101L109.006 437.474L111.218 436.071L111.789 437.07L109.458 438.283L111.789 439.496L111.218 440.495L109.006 439.092L109.101 441.709H107.959ZM116.333 441.709L116.428 439.092L114.216 440.495L113.645 439.496L115.976 438.283L113.645 437.07L114.216 436.071L116.428 437.474L116.333 434.857H117.475L117.38 437.474L119.592 436.071L120.163 437.07L117.832 438.283L120.163 439.496L119.592 440.495L117.38 439.092L117.475 441.709H116.333ZM129.417 441.709L129.512 439.092L127.3 440.495L126.729 439.496L129.06 438.283L126.729 437.07L127.3 436.071L129.512 437.474L129.417 434.857H130.559L130.464 437.474L132.676 436.071L133.247 437.07L130.916 438.283L133.247 439.496L132.676 440.495L130.464 439.092L130.559 441.709H129.417ZM137.791 441.709L137.886 439.092L135.674 440.495L135.103 439.496L137.434 438.283L135.103 437.07L135.674 436.071L137.886 437.474L137.791 434.857H138.933L138.838 437.474L141.05 436.071L141.621 437.07L139.29 438.283L141.621 439.496L141.05 440.495L138.838 439.092L138.933 441.709H137.791ZM146.165 441.709L146.26 439.092L144.047 440.495L143.476 439.496L145.808 438.283L143.476 437.07L144.047 436.071L146.26 437.474L146.165 434.857H147.307L147.211 437.474L149.424 436.071L149.995 437.07L147.663 438.283L149.995 439.496L149.424 440.495L147.211 439.092L147.307 441.709H146.165ZM154.538 441.709L154.634 439.092L152.421 440.495L151.85 439.496L154.182 438.283L151.85 437.07L152.421 436.071L154.634 437.474L154.538 434.857H155.68L155.585 437.474L157.798 436.071L158.369 437.07L156.037 438.283L158.369 439.496L157.798 440.495L155.585 439.092L155.68 441.709H154.538ZM167.623 441.709L167.718 439.092L165.505 440.495L164.934 439.496L167.266 438.283L164.934 437.07L165.505 436.071L167.718 437.474L167.623 434.857H168.764L168.669 437.474L170.882 436.071L171.453 437.07L169.121 438.283L171.453 439.496L170.882 440.495L168.669 439.092L168.764 441.709H167.623ZM175.996 441.709L176.092 439.092L173.879 440.495L173.308 439.496L175.64 438.283L173.308 437.07L173.879 436.071L176.092 437.474L175.996 434.857H177.138L177.043 437.474L179.255 436.071L179.826 437.07L177.495 438.283L179.826 439.496L179.255 440.495L177.043 439.092L177.138 441.709H175.996ZM184.37 441.709L184.465 439.092L182.253 440.495L181.682 439.496L184.013 438.283L181.682 437.07L182.253 436.071L184.465 437.474L184.37 434.857H185.512L185.417 437.474L187.629 436.071L188.2 437.07L185.869 438.283L188.2 439.496L187.629 440.495L185.417 439.092L185.512 441.709H184.37ZM192.744 441.709L192.839 439.092L190.627 440.495L190.056 439.496L192.387 438.283L190.056 437.07L190.627 436.071L192.839 437.474L192.744 434.857H193.886L193.791 437.474L196.003 436.071L196.574 437.07L194.243 438.283L196.574 439.496L196.003 440.495L193.791 439.092L193.886 441.709H192.744Z" fill="white"/>
<path opacity="0.7" d="M-1.82646 103.008C33.3688 119.042 114.764 130.219 159.882 47.3732M159.882 47.3732C160.074 47.02 160.266 46.665 160.457 46.3083C205.454 -37.6974 178.822 12.0159 159.882 47.3732Z" stroke="#D4DDEB" stroke-opacity="0.19" stroke-width="1.57009"/>
<path opacity="0.6" d="M44.4683 -35.0414C60.4014 0.199748 114.306 62.2033 202.81 29.5543M202.81 29.5543C203.187 29.4151 203.565 29.2742 203.944 29.1315C293.122 -4.46948 240.346 15.413 202.81 29.5543Z" stroke="#D4DDEB" stroke-opacity="0.2" stroke-width="1.57009"/>
<circle opacity="0.5" cx="669.318" cy="432.318" r="18.3177" fill="white"/>
<circle opacity="0.5" cx="687.635" cy="432.318" r="18.3177" fill="white"/>
<g clip-path="url(#clip1_1104_14137)" filter="url(#filter1_d_1104_14137)">
<path fill-rule="evenodd" clip-rule="evenodd" d="M611.608 64.9836C612.477 64.6351 613.222 64.0196 613.745 63.2195C614.267 62.4194 614.541 61.473 614.53 60.5069C614.53 56.4778 611.774 54.4805 607.989 54.4805H598.062V76.3821H608.852C612.173 76.3821 615.426 73.9715 615.426 70.2868C615.426 65.9134 611.608 65.018 611.608 64.9836ZM603.241 59.0261H607.093C607.358 59.0095 607.625 59.0515 607.874 59.1495C608.122 59.2474 608.349 59.399 608.537 59.5943C608.725 59.7896 608.871 60.0241 608.966 60.2823C609.06 60.5405 609.101 60.8166 609.085 61.0923C609.08 61.3678 609.021 61.6393 608.912 61.8906C608.803 62.1418 608.646 62.3676 608.45 62.5542C608.255 62.7408 608.025 62.8845 607.774 62.9765C607.524 63.0685 607.258 63.107 606.993 63.0896H603.241V59.0261ZM607.126 71.802H603.241V67.4975H607.026C608.919 67.4975 609.815 68.3584 609.815 69.6325C609.815 71.2166 608.686 71.802 607.126 71.802Z" fill="white"/>
<path fill-rule="evenodd" clip-rule="evenodd" d="M626.847 53.9292C620.738 53.9292 617.152 58.9914 617.152 65.3966C617.152 71.8362 620.738 76.8639 626.847 76.8639C632.99 76.8639 636.543 71.8362 636.543 65.3966C636.543 58.9914 632.99 53.9292 626.847 53.9292ZM626.847 71.6296C623.859 71.6296 622.365 68.8402 622.365 65.3966C622.365 61.9529 623.859 59.198 626.847 59.198C629.836 59.198 631.363 61.9873 631.363 65.3966C631.363 68.8746 629.836 71.6296 626.847 71.6296Z" fill="white"/>
<path fill-rule="evenodd" clip-rule="evenodd" d="M647.799 63.0896L647.068 62.9174C645.275 62.5386 643.848 62.0565 643.848 60.7134C643.848 59.2671 645.209 58.6817 646.404 58.6817C647.219 58.695 648.023 58.8822 648.766 59.2318C649.509 59.5813 650.174 60.0857 650.72 60.7134L654.007 57.3387C652.513 55.5824 650.09 53.895 646.304 53.895C641.855 53.895 638.469 56.4778 638.469 60.7823C638.469 64.7081 641.191 66.6365 644.512 67.3597L645.242 67.5319C647.998 68.1173 649.027 68.565 649.027 69.9424C649.027 71.251 647.898 72.1119 646.172 72.1119C644.113 72.1119 642.254 71.1821 640.826 69.2881L637.473 72.7318C639.332 75.039 641.689 76.8297 646.238 76.8297C650.189 76.8297 654.406 74.488 654.406 69.7014C654.472 64.7081 650.82 63.7439 647.799 63.0896Z" fill="white"/>
<path fill-rule="evenodd" clip-rule="evenodd" d="M666.225 71.6298C663.901 71.6298 661.477 69.6325 661.477 65.259C661.477 61.3677 663.735 59.1982 666.093 59.1982C667.952 59.1982 669.048 60.0936 669.911 61.6432L674.161 58.7161C672.036 55.3758 669.512 53.9639 666.026 53.9639C659.651 53.9639 656.198 59.0949 656.198 65.2935C656.198 71.802 660.017 76.8986 665.96 76.8986C670.143 76.8986 672.135 75.3834 674.294 72.1463L670.01 69.1504C669.147 70.5967 668.218 71.6298 666.225 71.6298Z" fill="white"/>
<path fill-rule="evenodd" clip-rule="evenodd" d="M688.339 54.4805V62.5386H681.931V54.4805H676.386V76.3821H681.931V67.7385H688.339V76.3821H693.883V54.4805H688.339Z" fill="white"/>
<path d="M566.121 48.9014C562.956 48.9014 559.861 49.8748 557.23 51.6987C554.598 53.5226 552.547 56.1149 551.335 59.1478C550.124 62.1808 549.807 65.5182 550.425 68.7379C551.042 71.9577 552.566 74.9153 554.805 77.2366C557.043 79.5579 559.894 81.1388 562.999 81.7792C566.103 82.4197 569.321 82.091 572.245 80.8347C575.169 79.5784 577.669 77.4509 579.427 74.7213C581.186 71.9917 582.124 68.7826 582.124 65.4998C582.122 61.0983 580.435 56.8778 577.434 53.7655C574.434 50.6533 570.364 48.9037 566.121 48.9014ZM566.121 80.5485C563.251 80.5485 560.446 79.6659 558.06 78.0123C555.674 76.3588 553.814 74.0085 552.716 71.2587C551.618 68.5089 551.33 65.4831 551.89 62.5639C552.45 59.6447 553.832 56.9633 555.861 54.8587C557.89 52.7541 560.476 51.3208 563.29 50.7402C566.105 50.1595 569.022 50.4575 571.673 51.5965C574.325 52.7355 576.591 54.6644 578.185 57.1391C579.779 59.6139 580.63 62.5234 580.63 65.4998C580.626 69.4897 579.096 73.315 576.376 76.1363C573.656 78.9576 569.968 80.5444 566.121 80.5485Z" fill="white"/>
<path d="M572.727 55.1348H571.632V60.8168H560.642V55.1348H559.513C557.859 56.2663 556.503 57.8055 555.564 59.6145C554.625 61.4235 554.134 63.4458 554.134 65.5002C554.134 67.5545 554.625 69.5768 555.564 71.3858C556.503 73.1948 557.859 74.734 559.513 75.8655H560.642V70.1835H571.632V75.8655H572.727C574.38 74.734 575.737 73.1948 576.676 71.3858C577.615 69.5768 578.106 67.5545 578.106 65.5002C578.106 63.4458 577.615 61.4235 576.676 59.6145C575.737 57.8055 574.38 56.2663 572.727 55.1348ZM559.114 73.6272C558.008 72.6071 557.122 71.3555 556.515 69.9547C555.908 68.5539 555.595 67.0357 555.595 65.5002C555.595 63.9646 555.908 62.4464 556.515 61.0456C557.122 59.6448 558.008 58.3932 559.114 57.3731V73.6272ZM571.632 68.5994H560.642V62.3664H571.632V68.5994ZM573.126 73.5927V70.1491V60.8168V57.3731C574.223 58.3956 575.1 59.6461 575.701 61.0433C576.301 62.4405 576.612 63.9531 576.612 65.4829C576.612 67.0127 576.301 68.5254 575.701 69.9226C575.1 71.3198 574.223 72.5703 573.126 73.5927Z" fill="white"/>
</g>
<path d="M695.238 238.641L695.237 238.657" stroke="white" stroke-width="2" stroke-linecap="round" stroke-linejoin="round"/>
<path d="M700.256 234.165C701.443 235.496 702.052 237.244 701.951 239.024C701.849 240.805 701.045 242.472 699.714 243.659" stroke="white" stroke-width="2" stroke-linecap="round" stroke-linejoin="round"/>
<path d="M705.275 229.687C706.451 231.005 707.356 232.542 707.938 234.209C708.52 235.877 708.768 237.643 708.668 239.407C708.567 241.171 708.12 242.897 707.352 244.488C706.584 246.079 705.511 247.503 704.192 248.679" stroke="white" stroke-width="2" stroke-linecap="round" stroke-linejoin="round"/>
<path d="M710.293 225.21C717.713 233.525 716.985 246.279 708.666 253.747" stroke="white" stroke-width="2" stroke-linecap="round" stroke-linejoin="round"/>
</g>
</g>
<defs>
<filter id="filter0_d_1104_14137" x="0" y="0" width="762" height="499" filterUnits="userSpaceOnUse" color-interpolation-filters="sRGB">
<feFlood flood-opacity="0" result="BackgroundImageFix"/>
<feColorMatrix in="SourceAlpha" type="matrix" values="0 0 0 0 0 0 0 0 0 0 0 0 0 0 0 0 0 0 127 0" result="hardAlpha"/>
<feOffset dy="4"/>
<feGaussianBlur stdDeviation="10"/>
<feComposite in2="hardAlpha" operator="out"/>
<feColorMatrix type="matrix" values="0 0 0 0 0 0 0 0 0 0 0 0 0 0 0 0 0 0 0.25 0"/>
<feBlend mode="normal" in2="BackgroundImageFix" result="effect1_dropShadow_1104_14137"/>
<feBlend mode="normal" in="SourceGraphic" in2="effect1_dropShadow_1104_14137" result="shape"/>
</filter>
<filter id="filter1_d_1104_14137" x="509" y="17" width="246" height="111" filterUnits="userSpaceOnUse" color-interpolation-filters="sRGB">
<feFlood flood-opacity="0" result="BackgroundImageFix"/>
<feColorMatrix in="SourceAlpha" type="matrix" values="0 0 0 0 0 0 0 0 0 0 0 0 0 0 0 0 0 0 127 0" result="hardAlpha"/>
<feOffset dy="4"/>
<feGaussianBlur stdDeviation="10"/>
<feComposite in2="hardAlpha" operator="out"/>
<feColorMatrix type="matrix" values="0 0 0 0 0 0 0 0 0 0 0 0 0 0 0 0 0 0 0.25 0"/>
<feBlend mode="normal" in2="BackgroundImageFix" result="effect1_dropShadow_1104_14137"/>
<feBlend mode="normal" in="SourceGraphic" in2="effect1_dropShadow_1104_14137" result="shape"/>
</filter>
<linearGradient id="paint0_linear_1104_14137" x1="0" y1="459" x2="736.806" y2="55.0742" gradientUnits="userSpaceOnUse">
<stop offset="0.00397914" stop-opacity="0.65"/>
<stop offset="1"/>
</linearGradient>
<clipPath id="clip0_1104_14137">
<rect width="722" height="459" rx="15.7009" transform="matrix(1 0 0 -1 20 475)" fill="white"/>
</clipPath>
<clipPath id="clip1_1104_14137">
<rect width="206" height="71" fill="white" transform="translate(529 33)"/>
</clipPath>
</defs>
</svg>
