<svg width="612" height="240" viewBox="0 0 612 240" fill="none" xmlns="http://www.w3.org/2000/svg">
<path d="M520.565 185.182C520.565 171.134 524.141 158.339 530.025 148.67V130.644H557.26C577.508 130.644 593.921 155.057 593.921 185.182C593.921 215.306 577.488 239.706 557.26 239.706H529.998V221.68C524.129 212.024 520.541 199.216 520.541 185.182" fill="#232628"/>
<path d="M556.4 187.005C556.4 209.233 544.271 227.259 529.345 227.259C514.418 227.259 502.286 209.233 502.286 187.005C502.286 164.778 514.414 146.76 529.345 146.76C544.275 146.76 556.4 164.773 556.4 187.005Z" fill="#8A9097"/>
<path d="M529.364 146.76C530.666 146.764 531.965 146.908 533.241 147.191C520.131 150.025 510.028 166.752 510.028 187.018C510.028 207.285 520.103 224.059 533.241 226.855C531.964 227.131 530.666 227.275 529.364 227.285C514.422 227.285 502.305 209.259 502.305 187.031C502.305 164.803 514.434 146.786 529.364 146.786" fill="#C1C7CC"/>
<path d="M498.717 191.908L521.469 180.446C523.217 179.625 524.584 178.054 525.252 176.098L536.962 139.38L554.037 144.111L542.131 181.444C541.434 183.623 541.708 186.036 542.87 187.96L554.044 207.134L546.008 227.267L529.329 199.414C528.089 197.571 525.835 196.952 523.953 197.938L500.525 209.753L498.717 191.908Z" fill="#C1C7CC"/>
<path d="M530.765 130.644C510.514 130.644 494.101 155.057 494.101 185.182C494.101 215.306 510.533 239.706 530.765 239.706C550.996 239.706 567.425 215.293 567.425 185.182C567.425 155.07 550.993 130.644 530.765 130.644ZM529.364 227.259C514.422 227.259 502.305 209.233 502.305 187.005C502.305 164.777 514.434 146.76 529.364 146.76C544.294 146.76 556.419 164.773 556.419 187.005C556.419 209.237 544.29 227.259 529.364 227.259Z" fill="#383B3E"/>
<path d="M297.711 185.182C297.711 171.134 301.28 158.339 307.172 148.67V130.644H334.399C354.647 130.644 371.067 155.057 371.067 185.182C371.067 215.306 354.635 239.706 334.399 239.706H307.133V221.68C301.264 212.024 297.676 199.216 297.676 185.182" fill="#232628"/>
<path d="M333.546 187.005C333.546 209.233 321.417 227.259 306.491 227.259C291.565 227.259 279.424 209.233 279.424 187.005C279.424 164.778 291.553 146.76 306.491 146.76C321.429 146.76 333.546 164.773 333.546 187.005Z" fill="#8A9097"/>
<path d="M306.491 146.76C307.793 146.764 309.092 146.908 310.368 147.191C297.258 150.025 287.155 166.752 287.155 187.018C287.155 207.285 297.23 224.059 310.368 226.855C309.091 227.131 307.793 227.275 306.491 227.285C291.549 227.285 279.424 209.259 279.424 187.031C279.424 164.803 291.553 146.786 306.491 146.786" fill="#C1C7CC"/>
<path d="M275.856 191.908L298.608 180.446C300.353 179.62 301.718 178.051 302.391 176.098L314.101 139.38L331.175 144.111L319.262 181.435C318.569 183.617 318.844 186.029 320.005 187.956L331.226 207.035L323.178 227.25L306.499 199.397C305.263 197.551 303.008 196.932 301.127 197.921L277.699 209.736L275.856 191.908Z" fill="#C1C7CC"/>
<path d="M307.915 130.644C287.664 130.644 271.251 155.057 271.251 185.182C271.251 215.306 287.684 239.706 307.915 239.706C328.147 239.706 344.576 215.293 344.576 185.182C344.576 155.07 328.143 130.644 307.915 130.644ZM306.495 227.259C291.553 227.259 279.428 209.233 279.428 187.005C279.428 164.777 291.557 146.76 306.495 146.76C321.433 146.76 333.55 164.773 333.55 187.005C333.55 209.237 321.421 227.259 306.495 227.259Z" fill="#383B3E"/>
<path d="M146.72 134.399L198.545 158.081L200.481 217.796H453.907C505.588 217.796 590.963 217.426 590.963 217.426C601.609 217.194 599.879 208.996 602.587 200.842C618.605 182.579 609.328 137.014 609.328 137.014L601.589 124.971C595.177 106.928 586.002 102.606 572.081 86.9672C514.676 22.5376 453.41 3.28613 372.331 3.28613H353.692C313.651 4.76999 234.916 2.27539 165.789 74.0512L146.72 134.399Z" fill="#4D3E8F"/>
<path d="M200.431 213.65L132.196 186.691C130.322 163.754 137.529 145.01 149.255 131.432L200.431 132.516V213.65Z" fill="#D0D4D8"/>
<path d="M560.707 74.3308C527.529 38.9289 491.064 22.985 460.269 12.8259C452.197 10.1683 443.934 8.27047 435.569 7.15283C393.103 1.40663 350.245 2.93781 329.215 4.1464C357.338 13.0969 381.377 35.6473 399.535 63.161C419.673 93.6984 447.142 117.423 479.21 130.778C487.543 134.257 534.83 153.547 564.06 133.311C597.207 110.627 575.066 89.5952 560.75 74.3222" fill="#383B3E"/>
<path d="M504.531 173.762C528.034 176.567 551.744 176.567 575.246 173.762L578.85 171.134C578.85 171.134 578.662 168.175 577.676 168.175C551.685 170.717 526.348 170.945 501.898 168.175C501.276 168.175 500.76 169.358 500.724 170.85L504.531 173.762ZM514.403 195.349C531.333 197.181 548.386 197.181 565.316 195.349L567.895 192.738C567.895 192.738 567.758 189.771 567.038 189.771C548.896 191.702 530.627 191.702 512.486 189.771C512.028 189.771 511.625 190.962 511.625 192.455L514.403 195.349Z" fill="#2E3033"/>
<path d="M571.111 157.362C582.821 156.855 595.634 154.162 610.236 149.143L608.338 136.713C593.404 144.489 581.244 148.537 570.136 149.444L571.111 157.362Z" fill="#BABABA"/>
<path d="M608.1 137.242L609.88 148.898C595.521 153.801 582.927 156.455 571.396 156.997L570.536 149.776C581.491 148.829 593.475 144.821 608.096 137.242M608.597 136.193C595.603 142.988 582.649 148.141 569.784 149.096L570.833 157.698C584.042 157.16 597.305 153.917 610.608 149.354L608.597 136.12M284.127 201.362V18.0647C316.758 9.21746 342.424 14.3572 364.725 37.2517L379.339 123.948C358.473 138.064 345.448 163.328 352.362 200.881L284.127 201.362Z" fill="#4D3E8F"/>
<path d="M411.777 217.968C417.744 210.575 421.558 199.474 421.558 187.001C421.558 164.769 409.43 146.756 394.499 146.756C379.569 146.756 367.444 164.769 367.444 187.001C367.444 199.448 371.243 210.571 377.226 217.968H366.603C361.665 207.9 359.131 196.619 359.236 185.182C359.236 155.074 375.649 130.644 395.896 130.644C416.144 130.644 432.557 155.057 432.557 185.182C432.66 196.619 430.125 207.899 425.189 217.968H411.777Z" fill="#8A9097"/>
<path d="M390.47 185.182C390.47 171.134 394.038 158.339 399.926 148.67V130.644H427.157C447.405 130.644 463.818 155.057 463.818 185.182C463.818 215.306 447.385 239.706 427.157 239.706H399.903V221.68C394.05 212.042 390.47 199.216 390.47 185.182Z" fill="#232628"/>
<path d="M426.316 187.005C426.316 209.233 414.187 227.259 399.253 227.259C384.319 227.259 372.194 209.233 372.194 187.005C372.194 164.778 384.323 146.76 399.253 146.76C414.183 146.76 426.316 164.773 426.316 187.005Z" fill="#8A9097"/>
<path d="M399.253 146.76C400.555 146.764 401.854 146.908 403.131 147.191C390.028 150.025 379.918 166.752 379.918 187.018C379.918 207.285 389.992 224.059 403.131 226.855C401.853 227.131 400.555 227.275 399.253 227.285C384.307 227.285 372.194 209.259 372.194 187.031C372.194 164.803 384.323 146.786 399.253 146.786" fill="#C1C7CC"/>
<path d="M368.626 191.908L391.377 180.446C393.122 179.62 394.488 178.051 395.161 176.098L406.871 139.38L423.937 144.111L412.028 181.444C411.34 183.623 411.615 186.031 412.771 187.956L423.949 207.13L415.901 227.345L399.222 199.491C397.987 197.648 395.736 197.029 393.858 198.016L370.43 209.831L368.626 191.908Z" fill="#C1C7CC"/>
<path d="M400.705 130.644C380.457 130.644 364.044 155.057 364.044 185.182C364.044 215.306 380.457 239.706 400.705 239.706C420.952 239.706 437.365 215.293 437.365 185.182C437.365 155.07 420.952 130.644 400.705 130.644ZM399.253 227.259C384.307 227.259 372.194 209.233 372.194 187.005C372.194 164.777 384.323 146.76 399.253 146.76C414.183 146.76 426.316 164.773 426.316 187.005C426.316 209.237 414.187 227.259 399.253 227.259Z" fill="#383B3E"/>
<path d="M480.328 217.676H441.947C447.244 173.375 435.929 131.251 396.209 128.993L451.423 124.455L480.328 217.676Z" fill="#4D3E8F"/>
<path d="M188.924 217.968C194.894 210.575 198.658 199.474 198.658 187.001C198.658 164.769 186.529 146.756 171.603 146.756C156.677 146.756 144.544 164.769 144.544 187.001C144.544 188.558 144.603 190.089 144.716 191.603L136.418 188.386C136.375 187.336 136.359 186.27 136.359 185.203C136.359 155.096 152.792 130.666 173.019 130.666C193.247 130.666 209.68 155.079 209.68 185.203C209.785 196.641 207.25 207.921 202.313 217.99L188.924 217.968Z" fill="#8A9097"/>
<path d="M167.628 185.182C167.628 171.134 171.196 158.339 177.089 148.67V130.644H204.316C224.563 130.644 240.976 155.057 240.976 185.182C240.976 215.306 224.579 239.706 204.316 239.706H177.061V221.68C171.192 212.024 167.605 199.216 167.605 185.182" fill="#232628"/>
<path d="M203.451 187.005C203.451 209.233 191.322 227.259 176.388 227.259C161.454 227.259 149.329 209.233 149.329 187.005C149.329 164.778 161.458 146.76 176.388 146.76C191.318 146.76 203.451 164.773 203.451 187.005Z" fill="#8A9097"/>
<path d="M176.4 146.76C177.702 146.764 179.001 146.908 180.277 147.191C167.166 150.025 157.064 166.752 157.064 187.018C157.064 207.285 167.131 224.059 180.277 226.855C179 227.131 177.702 227.275 176.4 227.285C161.454 227.285 149.341 209.259 149.341 187.031C149.341 164.803 161.47 146.786 176.4 146.786" fill="#C1C7CC"/>
<path d="M145.773 191.908L168.516 180.446C170.262 179.619 171.63 178.05 172.308 176.098L184.045 139.332L201.123 144.064L189.206 181.362C188.517 183.541 188.791 185.948 189.945 187.874L201.104 207.039L193.056 227.254L176.377 199.401C175.14 197.559 172.888 196.94 171.009 197.925L147.573 209.74L145.773 191.908Z" fill="#C1C7CC"/>
<path d="M177.816 130.644C157.569 130.644 141.156 155.057 141.156 185.182C141.156 215.306 157.589 239.706 177.816 239.706C198.044 239.706 214.477 215.293 214.477 185.182C214.477 155.07 198.064 130.644 177.816 130.644ZM176.4 227.259C161.454 227.259 149.341 209.233 149.341 187.005C149.341 164.777 161.47 146.76 176.4 146.76C191.33 146.76 203.451 164.773 203.451 187.005C203.451 209.237 191.322 227.259 176.388 227.259" fill="#383B3E"/>
<path d="M257.475 217.676H219.101C224.407 173.375 213.084 131.251 173.372 128.993L228.569 124.455L257.475 217.676Z" fill="#4D3E8F"/>
<path d="M459.377 215.482H590.482L597.164 213.59C597.164 213.59 596.812 211.409 595.004 211.409H454.51C453.433 211.335 452.49 212.197 452.362 213.375L459.377 215.482Z" fill="#8A9097"/>
<path d="M492.563 151.969C473.435 148.859 456.892 143.461 442.017 135.483L440.299 149.896C454.741 155.057 471.991 158.545 491.585 160.296L492.563 151.969Z" fill="#BABABA"/>
<path d="M442.275 136.025C456.982 143.857 473.349 149.178 492.195 152.257L491.264 159.883C471.936 158.163 454.878 154.722 440.609 149.638L442.267 136.012M439.893 150.133C455.19 155.621 472.652 158.967 491.823 160.649L492.915 151.651C474.636 148.713 457.44 143.41 441.743 134.941L439.893 150.133ZM204.547 51.3849C233.386 34.856 258.148 23.2948 279.917 17.7679V201.422L226.026 201.939C227.278 160.649 217.755 135.105 185.528 124.434L204.547 51.3849Z" fill="#4D3E8F" fill-opacity="0.29"/>
<path d="M404.453 94.3049L342.299 129.38L196.628 119.229L157.389 100.735L163.406 81.8319C179.193 63.6557 247.561 16.6238 305.666 13.4453C363.771 10.2669 400.713 79.2857 404.555 94.3307" fill="#383B3E"/>
<path d="M13.0873 0H56.8763L57.784 239.706H13.9911L13.0873 0Z" fill="#E0E2E5"/>
<path d="M32.3369 0H76.1298L77.0336 239.706H33.2564L32.3369 0Z" fill="#C1C7CC"/>
<path d="M163.986 123.393C167.681 123.393 170.676 120.1 170.676 116.038C170.676 111.976 167.681 108.683 163.986 108.683C160.291 108.683 157.295 111.976 157.295 116.038C157.295 120.1 160.291 123.393 163.986 123.393Z" fill="#383B3E"/>
<path d="M157.804 110.778H164.925V121.29H157.804C155.163 121.29 153.023 118.936 153.023 116.034C153.023 113.13 155.163 110.776 157.804 110.773V110.778ZM14.9147 80.5156H22.0316V91.0317H14.9147C12.3263 90.9503 10.2665 88.6202 10.2665 85.7737C10.2665 82.9271 12.3263 80.597 14.9147 80.5156Z" fill="#71767C"/>
<path d="M166.184 123.393C168.665 123.393 170.676 120.1 170.676 116.038C170.676 111.976 168.665 108.683 166.184 108.683C163.704 108.683 161.693 111.976 161.693 116.038C161.693 120.1 163.704 123.393 166.184 123.393Z" fill="#C1C7CC"/>
<path d="M32.4741 36.8126H76.2708L76.5056 99.5648H32.7127L32.4741 36.8126Z" fill="#383B3E"/>
<path d="M73.1328 226.355H73.035C32.6827 226.289 0.0021132 190.311 0 145.952V95.4402C0.0107818 89.3211 4.52399 84.3654 10.0904 84.3607H12.1288V87.1908H10.0943C5.94819 87.1932 2.58522 90.8824 2.57444 95.4402V145.952C2.57656 188.749 34.1075 223.459 73.0389 223.521H73.1328C112.004 223.521 143.656 188.786 143.707 146.042V125.788C143.715 119.728 148.136 114.791 153.649 114.687L158.954 114.601L158.989 117.436L153.684 117.517C149.58 117.597 146.289 121.272 146.281 125.784V146.046C146.227 190.347 113.42 226.355 73.1328 226.355Z" fill="#71767C"/>
</svg>
