<svg width="829" height="466" viewBox="0 0 829 466" fill="none" xmlns="http://www.w3.org/2000/svg">
<g clip-path="url(#clip0_1125_770)">
<path d="M581.448 85.3474H558.892L558.515 112.266H431.247V34.5573H558.515L558.892 64.9198L558.972 64.6816L581.448 85.3474Z" fill="#D0D4D8"/>
<mask id="mask0_1125_770" style="mask-type:luminance" maskUnits="userSpaceOnUse" x="0" y="-1" width="829" height="467">
<path d="M829 -0.431458H0V465.569H829V-0.431458Z" fill="white"/>
</mask>
<g mask="url(#mask0_1125_770)">
<path d="M665.914 107.768H663.503V109.661L665.914 107.768Z" fill="#2F353C"/>
<path d="M644.008 97.9634C639.417 99.332 634.66 99.5823 630.422 99.3294C629.934 103.951 629.542 107.916 629.26 110.971C634.756 107.341 639.72 102.963 644.008 97.9634Z" fill="#D0D4D8"/>
<path d="M629.198 110.148C627.787 121.711 625.342 136.312 625.342 136.312L665.895 131.505L661.448 81.7405C661.448 81.7405 661.773 79.137 661.762 78.8336C664.151 75.9405 672.467 69.5818 671.278 62.1595C670.777 59.0299 671.778 56.992 669.853 54.9818C665.522 50.4564 659.352 45.1755 655.689 50.667C660.121 38.6118 655.787 51.1373 655.689 50.667C654.862 46.3428 654.41 41.9555 654.336 37.5538C654.336 37.5538 640.133 37.5836 624.334 36.6628C608.647 35.7485 610.338 49.8696 605.234 48.1721C605.51 54.6698 606.282 61.1369 607.545 67.5167C608.041 69.9792 608.636 72.518 609.356 75.0733C613.776 90.7335 617.444 98.2468 617.444 98.2468C621.622 99.474 625.928 100.211 630.276 100.442C634.504 100.721 638.749 100.337 642.858 99.3035C638.821 103.524 634.225 107.172 629.198 110.148Z" fill="#D0D4D8"/>
<path d="M673.872 46.01C672.711 38.5385 663.045 32.8334 663.045 32.8334C663.045 32.8334 662.621 27.1076 653.093 20.4123C643.566 13.717 634.059 18.05 625.904 19.1451C608.295 21.5083 602.186 32.9905 602.556 38.8029C602.579 39.1333 602.581 39.4648 602.561 39.7954C602.168 45.5794 605.886 52.4378 605.886 52.4378C605.768 52.1409 605.721 51.8207 605.748 51.5025C605.775 51.1843 605.876 50.8767 606.042 50.604C607.564 48.4949 610.627 44.4963 612.903 43.1393C616.048 41.2589 617.862 43.5911 627.029 45.3792C636.195 47.1672 644.688 39.9533 644.688 39.9533C640.819 54.2224 650.225 49.0144 652.978 52.9202C653.416 53.5419 655.238 54.6638 656.53 55.5237L652.498 79.5465C652.498 79.5465 651.073 81.5136 647.001 81.0355C646.201 80.9414 637.645 77.015 623.843 76.3785C610.04 75.7421 610.386 78.4613 610.386 78.4613C610.386 78.4613 605.334 90.1544 611.517 100.329C616.684 108.829 627.172 111.149 634.613 110.97C637.531 110.901 635.065 109.257 638.154 105.68C640.219 103.29 651.979 103.857 655.749 97.9634C658.261 94.0369 656.943 88.4492 655.842 83.9165L654.103 74.9611C656.564 70.132 665.018 51.0514 671.277 62.159C672.901 58.8215 674.709 51.3944 673.872 46.01ZM637.185 84.5948C637.185 89.247 619.683 97.9642 611.265 81.5149V80.6666C616.506 85.1156 636.039 82.4003 636.039 82.4003C637.185 83.9855 637.185 83.9855 637.185 84.5939V84.5948Z" fill="#757F89"/>
<path d="M618.517 67.4857L611.926 76.5524C611.589 77.0417 611.169 77.4921 611.285 78.5113C611.401 79.5305 611.903 81.0139 614.154 81.3051C616.405 81.5964 631.565 77.1129 631.565 77.1129L624.498 73.6179L618.517 67.4857Z" fill="#D0D4D8"/>
<path d="M534.27 285.272L584.035 288.896L598.286 251.508L589.313 184.585C587.579 174.011 585.814 163.691 587.699 155.005L534.27 285.272Z" fill="#322472"/>
<path d="M710.616 145.251L712.688 139.396L669.341 117.383L633.102 135.143L626.579 119.683L597.172 140.529C592.129 143.946 588.635 149.21 587.446 155.183C585.561 163.869 587.521 174.065 589.18 184.564L598.152 251.484V251.711L605.09 297.558L611.725 300.806L612.102 300.655L687.427 330.972L692.33 199.519L710.616 145.251Z" fill="url(#paint0_linear_1125_770)"/>
<path d="M712.689 139.396L710.616 145.252L692.255 199.611L687.427 330.972L710.2 340.157C737.722 217.344 713.518 142.947 713.518 142.947L712.689 139.396Z" fill="#002C50"/>
<path fill-rule="evenodd" clip-rule="evenodd" d="M726.563 380.264H640.755L554.796 379.962C554.793 385.563 557.015 390.937 560.974 394.902C564.933 398.868 570.305 401.101 575.91 401.111H579.981L567.842 620.377H581.565L593.705 401.639H646.26L687.807 401.488L699.947 620.376H713.293L701.153 401.11H705.149C710.825 401.112 716.269 398.862 720.285 394.853C724.301 390.845 726.56 385.407 726.565 379.735L726.563 380.264Z" fill="#D0D4D8"/>
<path fill-rule="evenodd" clip-rule="evenodd" d="M295.035 620.981L305.139 424.752H392.983L403.086 620.981H415.754L399.165 299.824H386.498L392.229 411.836H305.82L311.626 299.824H298.955L282.366 620.981H295.035Z" fill="#2F353C"/>
<path d="M611.725 300.806L605.09 297.558L592.874 300.428L438.603 336.683L413.344 586.237L446.898 595.98C446.898 595.98 509.705 429.813 483.993 388.573C486.632 388.271 489.573 387.969 492.74 387.667L489.121 347.182L611.725 300.805V300.806Z" fill="#2F353C"/>
<path d="M612.004 300.681L611.725 300.806L489.121 347.184C518.15 349.6 537.981 356.021 547.557 390.16C652.367 369.766 708.09 397.562 710.2 340.158L687.354 330.943L612.102 300.656L612.004 300.681Z" fill="#525F6B"/>
<path d="M489.121 347.184L492.74 387.669L514.757 586.994L518.678 588.581L544.541 597.871C556.304 485.481 556.983 424.074 547.557 390.085C537.983 356.094 518.226 349.674 489.121 347.184Z" fill="#757F89"/>
<path d="M749.389 284.847L750.465 284.643L727.392 154.805C722.34 138.641 712.387 134.411 699.795 135.242C680.944 139.471 680.944 164.623 682.829 175.575C687.354 202.162 694.215 233.281 697.759 249.067C723.999 248.689 744.336 258.411 749.389 284.847Z" fill="#322472"/>
<path d="M697.683 249.143C669.182 249.596 634.722 260.548 608.256 270.216L571.987 251.484L573.118 289.098C579.302 291.667 595.814 293.253 605.164 294.008C605.164 294.008 750.615 285.624 750.465 284.643C750.389 284.265 750.313 283.963 750.238 283.585C745.187 257.149 723.999 248.69 697.683 249.143Z" fill="#D0D4D8"/>
<path d="M571.988 251.484L541.45 266.892C541.45 266.892 539.942 272.933 547.784 282.527C555.626 292.122 573.119 289.172 573.119 289.172L571.988 251.484Z" fill="#BFC0C2"/>
<path d="M490.855 201.181L528.031 278.373H534.364L497.191 201.181C496.418 199.562 495.198 198.197 493.675 197.247C492.153 196.297 490.39 195.801 488.595 195.818H482.259C484.051 195.817 485.807 196.319 487.327 197.267C488.847 198.216 490.069 199.572 490.855 201.181Z" fill="#757F89"/>
<path d="M534.362 278.373H528.104L490.928 201.181C490.155 199.562 488.936 198.198 487.413 197.248C485.89 196.298 484.128 195.802 482.333 195.818H371.192C368.682 195.82 366.274 196.813 364.495 198.582C362.715 200.351 361.708 202.752 361.693 205.26C361.688 206.694 361.997 208.112 362.6 209.414L400.226 287.512H620.475C621.403 287.51 622.322 287.325 623.178 286.967C624.034 286.608 624.811 286.084 625.463 285.424C626.115 284.763 626.629 283.981 626.977 283.12C627.324 282.26 627.498 281.34 627.487 280.412V277.845L534.365 278.374L534.362 278.373Z" fill="#2F353C"/>
<path d="M222.951 286.984H502.316V299.824H222.951V286.984Z" fill="#757F89"/>
<path d="M269.474 243.024H299.409V287.51H269.474V243.024Z" fill="#2F353C"/>
<path d="M502.316 286.984V299.824H558.489L541.901 620.981H554.418L564.521 424.752H654.099L664.202 620.981H676.87L660.281 299.824H713.138V286.984H502.316ZM565.277 411.836L571.083 299.823H647.616L653.422 411.836H565.277Z" fill="#BFC0C2"/>
<path d="M614.266 165.635C616.633 176.608 624.211 194.587 624.211 194.587C624.211 194.587 640 161.628 651.158 147.134C663.296 131.44 676.26 123.601 678.736 122.154L669.342 117.384L665.926 107.768L633.963 131.722L628.892 112.077L627.877 111.689L624.601 121.086L610.895 130.802C610.895 130.802 611.034 150.631 614.266 165.636V165.635Z" fill="#2F353C"/>
<path d="M662.284 80.2075C666.657 80.2075 670.201 74.1205 670.201 66.6119C670.201 59.1033 666.657 53.0164 662.284 53.0164C657.911 53.0164 654.367 59.1033 654.367 66.6119C654.367 74.1205 657.911 80.2075 662.284 80.2075Z" fill="#002C50"/>
<path d="M667.185 54.527C667.854 32.471 650.944 17.1146 634.008 16.7616C621.925 16.5096 609.126 24.3125 604.602 35.6441C608.371 26.5804 621.171 18.0202 633.254 18.2722C650.19 18.6252 664.838 32.471 664.169 54.527H667.185Z" fill="#002C50"/>
<path d="M657.625 71.476L640.041 86.2499L630.238 90.0263V92.2924H630.992L639.287 89.2712L658.048 72.959L657.625 71.476Z" fill="#002C50"/>
<path d="M664.546 79.452C668.676 79.452 672.024 73.7033 672.024 66.6119C672.024 59.5206 668.676 53.7719 664.546 53.7719C660.416 53.7719 657.069 59.5206 657.069 66.6119C657.069 73.7033 660.416 79.452 664.546 79.452Z" fill="url(#paint1_linear_1125_770)"/>
<path d="M627.773 18.8478C627.143 18.9613 626.521 19.0635 625.904 19.1451C608.295 21.5083 602.186 32.9904 602.556 38.8029C602.579 39.1333 602.581 39.4648 602.561 39.7953C602.168 45.5794 605.886 52.4377 605.886 52.4377C605.768 52.1409 605.721 51.8207 605.748 51.5025C605.775 51.1842 605.876 50.8767 606.042 50.604C607.564 48.4949 610.627 44.4963 612.903 43.1393C616.048 41.2589 617.862 43.5911 627.029 45.3791C627.924 45.5526 628.832 45.6471 629.744 45.6613L627.773 18.8478Z" fill="#757F89"/>
</g>
</g>
<defs>
<linearGradient id="paint0_linear_1125_770" x1="649.681" y1="117.383" x2="649.681" y2="330.972" gradientUnits="userSpaceOnUse">
<stop stop-color="#25356A"/>
<stop offset="0.244792" stop-color="#443C87"/>
</linearGradient>
<linearGradient id="paint1_linear_1125_770" x1="664.546" y1="53.7719" x2="664.546" y2="79.452" gradientUnits="userSpaceOnUse">
<stop offset="0.520833" stop-color="#4D3E8F"/>
<stop offset="1" stop-color="#4D3E8F" stop-opacity="0"/>
</linearGradient>
<clipPath id="clip0_1125_770">
<rect width="829" height="466" fill="white"/>
</clipPath>
</defs>
</svg>
